<?xml version="1.0" encoding="utf-8"?>
<!-- Generator: Adobe Illustrator 23.0.2, SVG Export Plug-In . SVG Version: 6.00 Build 0)  -->
<svg version="1.1" id="Layer_1" xmlns="http://www.w3.org/2000/svg" xmlns:xlink="http://www.w3.org/1999/xlink" x="0px" y="0px"
	 viewBox="0 0 100 102.4" style="enable-background:new 0 0 100 102.4;" xml:space="preserve">
<style type="text/css">
	.st0{fill:#FFFFFF;}
</style>
<g>
	<circle class="st0" cx="45" cy="56.5" r="1.3"/>
	<circle class="st0" cx="55" cy="56.5" r="1.3"/>
	<path class="st0" d="M75.5,44c0-10.5-7.6-19.5-18-22.4c0.3-0.9,0.5-1.8,0.5-2.8c0-4.3-3.6-7.8-8-7.8s-8,3.5-8,7.8
		c0,1,0.2,1.9,0.5,2.8c-10.4,3-18,11.9-18,22.4c0,5.1,1.8,10,5.1,14c-0.7,1.2-1.2,2.7-1.2,4.2c0,4,2.9,7.3,6.7,8V74
		c0,8.3,6.7,15,14.9,15s14.9-6.7,14.9-14.9v-3.8c3.8-0.7,6.7-4,6.7-8c0-1.5-0.4-3-1.2-4.2C73.7,54,75.5,49.1,75.5,44z M45.5,21
		c-0.3-0.7-0.5-1.4-0.5-2.1c0-2.7,2.3-4.8,5-4.8s5,2.2,5,4.8c0,0.7-0.2,1.5-0.5,2.1h-0.1c-0.7-0.1-1.4-0.2-2.1-0.3
		c-0.1,0-0.1,0-0.2,0c-0.7-0.1-1.4-0.1-2.1-0.1c-0.7,0-1.4,0-2.2,0.1c-0.1,0-0.1,0-0.2,0C47,20.8,46.2,20.8,45.5,21L45.5,21z
		 M45.1,24.1c0.4-0.1,0.8-0.1,1.2-0.2l0,0c2-0.3,4.1-0.4,6.2-0.2l0,0c0.4,0,0.8,0.1,1.2,0.2c0,0,0,0,0.1,0c0.4,0.1,0.8,0.1,1.1,0.2
		c10.1,2,17.6,10.2,17.6,20c0,4.2-1.4,8.3-4.1,11.7l-0.1-0.1c-0.2-0.1-0.3-0.2-0.5-0.3c-0.1-0.1-0.2-0.1-0.2-0.2
		c-0.2-0.1-0.5-0.3-0.7-0.4c-0.1,0-0.2-0.1-0.3-0.1c-0.2-0.1-0.4-0.1-0.6-0.2c-0.1,0-0.2-0.1-0.3-0.1c-0.3-0.1-0.6-0.2-0.8-0.2v-6.3
		C64.9,39.7,58.2,33,50,33s-14.9,6.7-14.9,14.9v6.3c-0.3,0.1-0.6,0.1-0.8,0.2c-0.1,0-0.2,0.1-0.3,0.1c-0.2,0.1-0.4,0.1-0.6,0.2
		c-0.1,0-0.2,0.1-0.3,0.1c-0.2,0.1-0.5,0.2-0.7,0.4c-0.1,0-0.2,0.1-0.2,0.2c-0.2,0.1-0.3,0.2-0.5,0.3l-0.1,0.1
		c-2.6-3.4-4.1-7.5-4.1-11.7C27.5,34.3,35.1,26.1,45.1,24.1z M63.4,67.4c-0.8,0-1.5,0.7-1.5,1.5v5.2C61.9,80.7,56.6,86,50,86
		s-11.9-5.3-11.9-11.9v-5.2c0-0.8-0.7-1.5-1.5-1.5c-2.8,0-5.2-2.3-5.2-5.2c0-1.4,0.6-2.7,1.5-3.6c0,0,0,0,0.1-0.1
		c0.2-0.2,0.4-0.4,0.7-0.6c0,0,0.1,0,0.1-0.1c0.2-0.2,0.5-0.3,0.8-0.4h0.1c0.3-0.1,0.6-0.2,0.9-0.3h0.1c0.3-0.1,0.6-0.1,1-0.1
		c0.8,0,1.5-0.7,1.5-1.5v-7.7C38.1,41.3,43.4,36,50,36s11.9,5.3,11.9,11.9v7.7c0,0.8,0.7,1.5,1.5,1.5c0.3,0,0.7,0,1,0.1h0.1
		c0.3,0.1,0.6,0.2,0.9,0.3h0.1c0.3,0.1,0.5,0.3,0.8,0.4c0,0,0.1,0,0.1,0.1c0.2,0.2,0.5,0.4,0.7,0.6c0,0,0,0,0.1,0.1
		c0.9,0.9,1.5,2.2,1.5,3.6C68.6,65.1,66.2,67.4,63.4,67.4z"/>
	<path class="st0" d="M54.2,71.6c-0.6,0.6-1.3,1.1-1.9,1.4l-1.4-3.9l2.9-1.4c0.4-0.2,0.7-0.6,0.8-1.1s-0.1-1-0.4-1.3
		c0,0-3.6-4.1-2.8-17.4c0.1-0.8-0.6-1.5-1.4-1.6c-0.8-0.1-1.5,0.6-1.6,1.4c-0.7,10.3,1.2,15.6,2.5,18L48.4,67
		c-0.7,0.3-1,1.1-0.8,1.8l1.6,4.6c-1.2-0.2-2.4-0.8-3.5-1.9c-0.6-0.6-1.5-0.6-2.1,0s-0.6,1.5,0,2.1c1.9,1.9,4.1,2.8,6.4,2.8
		s4.5-0.9,6.4-2.8c0.6-0.6,0.6-1.5,0-2.1S54.8,71,54.2,71.6z"/>
</g>
</svg>
